<?xml version="1.0" encoding="iso-8859-1"?>
<!-- Generator: Adobe Illustrator 16.0.0, SVG Export Plug-In . SVG Version: 6.00 Build 0)  -->
<!DOCTYPE svg PUBLIC "-//W3C//DTD SVG 1.1//EN" "http://www.w3.org/Graphics/SVG/1.1/DTD/svg11.dtd">
<svg version="1.1" id="Layer_1" xmlns="http://www.w3.org/2000/svg" xmlns:xlink="http://www.w3.org/1999/xlink" x="0px" y="0px"
	 width="192.756px" height="192.756px" viewBox="0 0 192.756 192.756" style="enable-background:new 0 0 192.756 192.756;"
	 xml:space="preserve">
<g>
	<polygon style="fill:#FFFFFF;" points="0,192.756 192.756,192.756 192.756,0 0,0 0,192.756 	"/>
	<path style="fill-rule:evenodd;clip-rule:evenodd;" d="M49.78,114.707h-9.747l-2.982-7.191H20.806l-2.716,7.191H8.504L23.15,78.383
		h10.492L49.78,114.707L49.78,114.707z M28.529,87.065l-5.326,14.113h11.184L28.529,87.065L28.529,87.065z"/>
	<polygon style="fill-rule:evenodd;clip-rule:evenodd;" points="85.185,78.383 93.068,78.383 93.068,114.707 84.013,114.707 
		84.013,92.018 74.214,103.416 72.829,103.416 63.029,92.018 63.029,114.707 53.975,114.707 53.975,78.383 61.856,78.383 
		73.521,91.858 85.185,78.383 	"/>
	<path style="fill-rule:evenodd;clip-rule:evenodd;" d="M116.012,78.383c13.26,0,20.078,8.256,20.078,18.215
		c0,10.439-6.604,18.109-21.091,18.109h-15.02V78.383H116.012L116.012,78.383z M109.035,108.051h5.91
		c9.107,0,11.824-6.18,11.824-11.507c0-6.231-3.354-11.503-11.93-11.503h-5.805V108.051L109.035,108.051z"/>
	<polygon style="fill-rule:evenodd;clip-rule:evenodd;fill:#2B9969;" points="172.679,86.864 154.064,86.864 142.752,75.498 
		184.252,75.447 184.252,116.998 172.679,105.371 172.679,86.864 	"/>
	<polygon style="fill-rule:evenodd;clip-rule:evenodd;fill:#2B9969;" points="154.064,105.736 154.116,88.949 142.336,100.732 
		142.336,117.311 159.384,117.311 170.957,105.736 154.064,105.736 	"/>
</g>
</svg>
